<svg xmlns="http://www.w3.org/2000/svg" viewBox="0 0 953 493.45"><defs><style>.cls-1{fill:#fff;}.cls-2{fill:#fbac30;}</style></defs><g id="Layer_2" data-name="Layer 2"><g id="Layer_1-2" data-name="Layer 1"><path class="cls-1" d="M228.05,435h14.64V405.73H228.05V391.11H140.19V493.45h87.86V478.83h14.64v-29.2H228.05Zm-14.53,43.94h-44V449.59h44Zm0-43.93h-44V405.7h44Z"/><path class="cls-1" d="M462.28,420.35V405.73H447.66V391.11H403.8v14.62H389.18v14.62H374.47v73.1h29.28V464.21h43.93v29.24H476.9v-73.1Zm-14.6,29.28H403.75V420.34H418.4V405.7H433v14.64h14.64Z"/><path class="cls-1" d="M564.62,449.59h14.84V435H594.1V405.73H579.66v0h-.2V391.11h-58.7v1.58H491.61V493.45h29.15V464.21H550v.06h.18v14.56h14.44v.08h.2v14.54H594.1V478.91H579.46V464.27H564.62Zm-43.86,0V405.7h44.06V435H550.18v14.65Z"/><path class="cls-1" d="M696.63,420.35h0V405.73H682v0h0V391.11H638.15v14.62H623.52v14.62H608.9v73.1H638V464.21h44v29.24h29.23v-73.1ZM638,449.63V420.34h14.64V405.7h14.72v14.64H682v29.29Z"/><polygon class="cls-1" points="826.54 391.11 826.54 405.7 790.96 405.7 790.96 493.45 763.47 493.45 763.47 405.7 725.88 405.7 725.88 391.11 826.54 391.11"/><polygon class="cls-1" points="359.73 391.11 359.73 493.45 330.55 493.45 330.55 449.38 286.62 449.38 286.62 493.45 257.38 493.45 257.38 391.11 286.62 391.11 286.62 434.99 330.55 434.99 330.55 391.11 359.73 391.11"/><polygon class="cls-2" points="559 139 559 187 606 187 606 280 559 280 559 326 373 326 373 280 510 280 510 187 373 187 373 139 510 139 510 46 373 46 373 0 559 0 559 46 606 46 606 139 559 139"/><polygon class="cls-2" points="330 0 330 326 233 326 233 279 187 279 187 233 141 233 141 279 93 279 93 326 0 326 0 0 93 0 93 187 141 187 141 139 187 139 187 187 233 187 233 0 330 0"/><polygon class="cls-2" points="859 94 859 139 906 139 906 187 953 187 953 278.5 906 278.5 906 326 673 326 673 278.5 628 278.5 628 232.5 721 232.5 721 278.5 859 278.5 859 187 721 187 721 139 767 139 767 94 813 94 813 45.5 673 45.5 673 0 953 0 953 45.5 906 45.5 906 94 859 94"/></g></g></svg>