<svg xmlns="http://www.w3.org/2000/svg" width="236" height="230" fill="none" viewBox="0 0 236 230"><path fill="url(#paint0_linear_10_697)" fill-opacity=".3" d="M0 7.13208C0 3.26609 3.13401 0.13208 7 0.13208H229C232.866 0.13208 236 3.26609 236 7.13208V222.132C236 225.998 232.866 229.132 229 229.132H7C3.134 229.132 0 225.998 0 222.132V7.13208Z"/><path stroke="#fff" stroke-opacity=".2" d="M0.5 7.13208C0.5 3.54223 3.41015 0.63208 7 0.63208H229C232.59 0.63208 235.5 3.54223 235.5 7.13208V222.132C235.5 225.722 232.59 228.632 229 228.632H7C3.41015 228.632 0.5 225.722 0.5 222.132V7.13208Z"/><defs><linearGradient id="paint0_linear_10_697" x1="118" x2="118" y1=".132" y2="229.132" gradientUnits="userSpaceOnUse"><stop stop-color="#2E335A"/><stop offset="1" stop-color="#1C1B33"/></linearGradient></defs></svg>